<svg width="194" height="64" viewBox="0 0 194 64" fill="none" xmlns="http://www.w3.org/2000/svg">
<path fill-rule="evenodd" clip-rule="evenodd" d="M86.2222 24C86.2222 37.2548 75.3651 48 61.9722 48C48.5793 48 37.7222 37.2548 37.7222 24C37.7222 10.7452 48.5793 0 61.9722 0C75.3651 0 86.2222 10.7452 86.2222 24ZM77.6898 24C77.6898 32.5911 70.6528 39.5556 61.9722 39.5556C53.2916 39.5556 46.2546 32.5911 46.2546 24C46.2546 15.4089 53.2916 8.44444 61.9722 8.44444C70.6528 8.44444 77.6898 15.4089 77.6898 24Z" fill="black"/>
<path d="M31.8843 1.33333V9.33333H7.8588L0 1.33333H31.8843Z" fill="black"/>
<path d="M0.673611 24H31.4352V32.4444H8.53241V47.3333H0.673611V24Z" fill="black"/>
<path fill-rule="evenodd" clip-rule="evenodd" d="M169.75 48C183.143 48 194 37.2548 194 24C194 10.7452 183.143 0 169.75 0C156.357 0 145.5 10.7452 145.5 24C145.5 37.2548 156.357 48 169.75 48ZM169.75 39.5556C178.431 39.5556 185.468 32.5911 185.468 24C185.468 15.4089 178.431 8.44444 169.75 8.44444C161.069 8.44444 154.032 15.4089 154.032 24C154.032 32.5911 161.069 39.5556 169.75 39.5556Z" fill="black"/>
<path d="M138.988 1.55556V46.6667H131.579V20.4444L115.861 35.3333L92.5093 12.6667V1.33333L115.637 24.4444L138.988 1.55556Z" fill="black"/>
<path d="M37.874 63.091C37.276 63.091 36.7387 62.987 36.262 62.779C35.794 62.5623 35.4257 62.2677 35.157 61.895C34.8883 61.5137 34.7497 61.076 34.741 60.582H36.002C36.0453 61.0067 36.2187 61.3663 36.522 61.661C36.834 61.947 37.2847 62.09 37.874 62.09C38.4373 62.09 38.8793 61.9513 39.2 61.674C39.5293 61.388 39.694 61.024 39.694 60.582C39.694 60.2353 39.5987 59.9537 39.408 59.737C39.2173 59.5203 38.979 59.3557 38.693 59.243C38.407 59.1303 38.0213 59.009 37.536 58.879C36.938 58.723 36.457 58.567 36.093 58.411C35.7377 58.255 35.43 58.0123 35.17 57.683C34.9187 57.345 34.793 56.8943 34.793 56.331C34.793 55.837 34.9187 55.3993 35.17 55.018C35.4213 54.6367 35.7723 54.342 36.223 54.134C36.6823 53.926 37.2067 53.822 37.796 53.822C38.6453 53.822 39.3387 54.0343 39.876 54.459C40.422 54.8837 40.7297 55.447 40.799 56.149H39.499C39.4557 55.8023 39.2737 55.499 38.953 55.239C38.6323 54.9703 38.2077 54.836 37.679 54.836C37.185 54.836 36.782 54.966 36.47 55.226C36.158 55.4773 36.002 55.8327 36.002 56.292C36.002 56.6213 36.093 56.89 36.275 57.098C36.4657 57.306 36.6953 57.4663 36.964 57.579C37.2413 57.683 37.627 57.8043 38.121 57.943C38.719 58.1077 39.2 58.2723 39.564 58.437C39.928 58.593 40.24 58.84 40.5 59.178C40.76 59.5073 40.89 59.958 40.89 60.53C40.89 60.972 40.773 61.388 40.539 61.778C40.305 62.168 39.9583 62.4843 39.499 62.727C39.0397 62.9697 38.498 63.091 37.874 63.091Z" fill="black"/>
<path d="M52.4069 55.746C52.9442 55.746 53.4296 55.863 53.8629 56.097C54.2962 56.3223 54.6342 56.6647 54.8769 57.124C55.1282 57.5833 55.2539 58.1423 55.2539 58.801V63H54.0839V58.97C54.0839 58.2593 53.9062 57.7177 53.5509 57.345C53.1956 56.9637 52.7102 56.773 52.0949 56.773C51.4709 56.773 50.9726 56.968 50.5999 57.358C50.2359 57.748 50.0539 58.3157 50.0539 59.061V63H48.8709V53.38H50.0539V56.89C50.2879 56.526 50.6086 56.2443 51.0159 56.045C51.4319 55.8457 51.8956 55.746 52.4069 55.746Z" fill="black"/>
<path d="M64.0373 54.719C63.812 54.719 63.6213 54.641 63.4653 54.485C63.3093 54.329 63.2313 54.1383 63.2313 53.913C63.2313 53.6877 63.3093 53.497 63.4653 53.341C63.6213 53.185 63.812 53.107 64.0373 53.107C64.254 53.107 64.436 53.185 64.5833 53.341C64.7393 53.497 64.8173 53.6877 64.8173 53.913C64.8173 54.1383 64.7393 54.329 64.5833 54.485C64.436 54.641 64.254 54.719 64.0373 54.719ZM64.6093 55.876V63H63.4263V55.876H64.6093Z" fill="black"/>
<path d="M75.3875 63.117C74.8415 63.117 74.3519 63.026 73.9185 62.844C73.4852 62.6533 73.1429 62.3933 72.8915 62.064C72.6402 61.726 72.5015 61.3403 72.4755 60.907H73.6975C73.7322 61.2623 73.8969 61.5527 74.1915 61.778C74.4949 62.0033 74.8892 62.116 75.3745 62.116C75.8252 62.116 76.1805 62.0163 76.4405 61.817C76.7005 61.6177 76.8305 61.3663 76.8305 61.063C76.8305 60.751 76.6919 60.5213 76.4145 60.374C76.1372 60.218 75.7082 60.0663 75.1275 59.919C74.5989 59.7803 74.1655 59.6417 73.8275 59.503C73.4982 59.3557 73.2122 59.1433 72.9695 58.866C72.7355 58.58 72.6185 58.2073 72.6185 57.748C72.6185 57.384 72.7269 57.0503 72.9435 56.747C73.1602 56.4437 73.4679 56.2053 73.8665 56.032C74.2652 55.85 74.7202 55.759 75.2315 55.759C76.0202 55.759 76.6572 55.9583 77.1425 56.357C77.6279 56.7557 77.8879 57.3017 77.9225 57.995H76.7395C76.7135 57.6223 76.5619 57.3233 76.2845 57.098C76.0159 56.8727 75.6519 56.76 75.1925 56.76C74.7679 56.76 74.4299 56.851 74.1785 57.033C73.9272 57.215 73.8015 57.4533 73.8015 57.748C73.8015 57.982 73.8752 58.177 74.0225 58.333C74.1785 58.4803 74.3692 58.6017 74.5945 58.697C74.8285 58.7837 75.1492 58.8833 75.5565 58.996C76.0679 59.1347 76.4839 59.2733 76.8045 59.412C77.1252 59.542 77.3982 59.7413 77.6235 60.01C77.8575 60.2787 77.9789 60.6297 77.9875 61.063C77.9875 61.453 77.8792 61.804 77.6625 62.116C77.4459 62.428 77.1382 62.675 76.7395 62.857C76.3495 63.0303 75.8989 63.117 75.3875 63.117Z" fill="black"/>
<path d="M89.4335 55.746C89.9709 55.746 90.4562 55.863 90.8895 56.097C91.3229 56.3223 91.6609 56.6647 91.9035 57.124C92.1549 57.5833 92.2805 58.1423 92.2805 58.801V63H91.1105V58.97C91.1105 58.2593 90.9329 57.7177 90.5775 57.345C90.2222 56.9637 89.7369 56.773 89.1215 56.773C88.4975 56.773 87.9992 56.968 87.6265 57.358C87.2625 57.748 87.0805 58.3157 87.0805 59.061V63H85.8975V53.38H87.0805V56.89C87.3145 56.526 87.6352 56.2443 88.0425 56.045C88.4585 55.8457 88.9222 55.746 89.4335 55.746Z" fill="black"/>
<path d="M100.011 59.412C100.011 58.684 100.158 58.047 100.453 57.501C100.748 56.9463 101.151 56.5173 101.662 56.214C102.182 55.9107 102.758 55.759 103.391 55.759C104.015 55.759 104.557 55.8933 105.016 56.162C105.475 56.4307 105.818 56.7687 106.043 57.176V55.876H107.239V63H106.043V61.674C105.809 62.09 105.458 62.4367 104.99 62.714C104.531 62.9827 103.993 63.117 103.378 63.117C102.745 63.117 102.173 62.961 101.662 62.649C101.151 62.337 100.748 61.8993 100.453 61.336C100.158 60.7727 100.011 60.1313 100.011 59.412ZM106.043 59.425C106.043 58.8877 105.935 58.4197 105.718 58.021C105.501 57.6223 105.207 57.319 104.834 57.111C104.47 56.8943 104.067 56.786 103.625 56.786C103.183 56.786 102.78 56.89 102.416 57.098C102.052 57.306 101.762 57.6093 101.545 58.008C101.328 58.4067 101.22 58.8747 101.22 59.412C101.22 59.958 101.328 60.4347 101.545 60.842C101.762 61.2407 102.052 61.5483 102.416 61.765C102.78 61.973 103.183 62.077 103.625 62.077C104.067 62.077 104.47 61.973 104.834 61.765C105.207 61.5483 105.501 61.2407 105.718 60.842C105.935 60.4347 106.043 59.9623 106.043 59.425Z" fill="black"/>
<path d="M129.721 58.333C130.05 58.385 130.349 58.5193 130.618 58.736C130.895 58.9527 131.112 59.2213 131.268 59.542C131.433 59.8627 131.515 60.205 131.515 60.569C131.515 61.0283 131.398 61.4443 131.164 61.817C130.93 62.181 130.588 62.4713 130.137 62.688C129.695 62.896 129.171 63 128.564 63H125.184V53.939H128.434C129.049 53.939 129.574 54.043 130.007 54.251C130.44 54.4503 130.765 54.7233 130.982 55.07C131.199 55.4167 131.307 55.8067 131.307 56.24C131.307 56.7773 131.16 57.2237 130.865 57.579C130.579 57.9257 130.198 58.177 129.721 58.333ZM126.367 57.852H128.356C128.911 57.852 129.34 57.722 129.643 57.462C129.946 57.202 130.098 56.8423 130.098 56.383C130.098 55.9237 129.946 55.564 129.643 55.304C129.34 55.044 128.902 54.914 128.33 54.914H126.367V57.852ZM128.46 62.025C129.049 62.025 129.509 61.8863 129.838 61.609C130.167 61.3317 130.332 60.946 130.332 60.452C130.332 59.9493 130.159 59.555 129.812 59.269C129.465 58.9743 129.002 58.827 128.421 58.827H126.367V62.025H128.46Z" fill="black"/>
<path d="M138.955 59.412C138.955 58.684 139.102 58.047 139.397 57.501C139.691 56.9463 140.094 56.5173 140.606 56.214C141.126 55.9107 141.702 55.759 142.335 55.759C142.959 55.759 143.5 55.8933 143.96 56.162C144.419 56.4307 144.761 56.7687 144.987 57.176V55.876H146.183V63H144.987V61.674C144.753 62.09 144.402 62.4367 143.934 62.714C143.474 62.9827 142.937 63.117 142.322 63.117C141.689 63.117 141.117 62.961 140.606 62.649C140.094 62.337 139.691 61.8993 139.397 61.336C139.102 60.7727 138.955 60.1313 138.955 59.412ZM144.987 59.425C144.987 58.8877 144.878 58.4197 144.662 58.021C144.445 57.6223 144.15 57.319 143.778 57.111C143.414 56.8943 143.011 56.786 142.569 56.786C142.127 56.786 141.724 56.89 141.36 57.098C140.996 57.306 140.705 57.6093 140.489 58.008C140.272 58.4067 140.164 58.8747 140.164 59.412C140.164 59.958 140.272 60.4347 140.489 60.842C140.705 61.2407 140.996 61.5483 141.36 61.765C141.724 61.973 142.127 62.077 142.569 62.077C143.011 62.077 143.414 61.973 143.778 61.765C144.15 61.5483 144.445 61.2407 144.662 60.842C144.878 60.4347 144.987 59.9623 144.987 59.425Z" fill="black"/>
<path d="M155.605 57.033C155.813 56.6257 156.107 56.3093 156.489 56.084C156.879 55.8587 157.351 55.746 157.906 55.746V56.968H157.594C156.268 56.968 155.605 57.6873 155.605 59.126V63H154.422V55.876H155.605V57.033Z" fill="black"/>
</svg>
