<svg width="194" height="69" viewBox="0 0 194 69" fill="none" xmlns="http://www.w3.org/2000/svg">
<path fill-rule="evenodd" clip-rule="evenodd" d="M61.9722 48C75.3651 48 86.2222 37.2548 86.2222 24C86.2222 10.7452 75.3651 0 61.9722 0C48.5793 0 37.7222 10.7452 37.7222 24C37.7222 37.2548 48.5793 48 61.9722 48ZM61.9722 39.5556C70.6528 39.5556 77.6898 32.5911 77.6898 24C77.6898 15.4089 70.6528 8.44444 61.9722 8.44444C53.2916 8.44444 46.2546 15.4089 46.2546 24C46.2546 32.5911 53.2916 39.5556 61.9722 39.5556ZM31.8843 9.33333V1.33333H0L7.8588 9.33333H31.8843ZM31.4352 24H0.673611V47.3333H8.53241V32.4444H31.4352V24ZM194 24C194 37.2548 183.143 48 169.75 48C156.357 48 145.5 37.2548 145.5 24C145.5 10.7452 156.357 0 169.75 0C183.143 0 194 10.7452 194 24ZM185.468 24C185.468 32.5911 178.431 39.5556 169.75 39.5556C161.069 39.5556 154.032 32.5911 154.032 24C154.032 15.4089 161.069 8.44444 169.75 8.44444C178.431 8.44444 185.468 15.4089 185.468 24ZM138.988 46.6667V1.55556L115.637 24.4444L92.5093 1.33333V12.6667L115.861 35.3333L131.579 20.4444V46.6667H138.988ZM16.068 58.616C15.7 59.264 15.516 59.996 15.516 60.812C15.516 61.628 15.7 62.36 16.068 63.008C16.436 63.656 16.936 64.164 17.568 64.532C18.208 64.892 18.916 65.072 19.692 65.072C20.604 65.072 21.4 64.856 22.08 64.424C22.76 63.984 23.256 63.364 23.568 62.564H22.26C22.028 63.068 21.692 63.456 21.252 63.728C20.82 63.992 20.3 64.124 19.692 64.124C19.108 64.124 18.584 63.988 18.12 63.716C17.656 63.444 17.292 63.06 17.028 62.564C16.764 62.06 16.632 61.476 16.632 60.812C16.632 60.14 16.764 59.556 17.028 59.06C17.292 58.556 17.656 58.168 18.12 57.896C18.584 57.624 19.108 57.488 19.692 57.488C20.3 57.488 20.82 57.624 21.252 57.896C21.692 58.168 22.028 58.556 22.26 59.06H23.568C23.256 58.252 22.76 57.628 22.08 57.188C21.4 56.748 20.604 56.528 19.692 56.528C18.916 56.528 18.208 56.712 17.568 57.08C16.936 57.448 16.436 57.96 16.068 58.616ZM30.9535 59.924C30.6815 60.428 30.5455 61.016 30.5455 61.688C30.5455 62.352 30.6815 62.944 30.9535 63.464C31.2255 63.984 31.5975 64.388 32.0695 64.676C32.5415 64.964 33.0695 65.108 33.6535 65.108C34.2215 65.108 34.7175 64.984 35.1415 64.736C35.5735 64.48 35.8975 64.16 36.1135 63.776V65H37.2175V58.424H36.1135V59.624C35.9055 59.248 35.5895 58.936 35.1655 58.688C34.7415 58.44 34.2415 58.316 33.6655 58.316C33.0815 58.316 32.5495 58.456 32.0695 58.736C31.5975 59.016 31.2255 59.412 30.9535 59.924ZM35.8135 60.404C36.0135 60.772 36.1135 61.204 36.1135 61.7C36.1135 62.196 36.0135 62.632 35.8135 63.008C35.6135 63.376 35.3415 63.66 34.9975 63.86C34.6615 64.052 34.2895 64.148 33.8815 64.148C33.4735 64.148 33.1015 64.052 32.7655 63.86C32.4295 63.66 32.1615 63.376 31.9615 63.008C31.7615 62.632 31.6615 62.192 31.6615 61.688C31.6615 61.192 31.7615 60.76 31.9615 60.392C32.1615 60.024 32.4295 59.744 32.7655 59.552C33.1015 59.36 33.4735 59.264 33.8815 59.264C34.2895 59.264 34.6615 59.364 34.9975 59.564C35.3415 59.756 35.6135 60.036 35.8135 60.404ZM46.1189 59.324H47.4989V58.424H46.1189V57.956C46.1189 57.524 46.2149 57.216 46.4069 57.032C46.6069 56.84 46.9469 56.744 47.4269 56.744V55.832C46.5869 55.832 45.9749 56.004 45.5909 56.348C45.2149 56.684 45.0269 57.22 45.0269 57.956V58.424H44.1749V59.324H45.0269V65H46.1189V59.324ZM60.4961 62.12C60.5201 61.888 60.5321 61.668 60.5321 61.46C60.5321 60.86 60.4001 60.324 60.1361 59.852C59.8801 59.372 59.5121 58.996 59.0321 58.724C58.5521 58.452 58.0001 58.316 57.3761 58.316C56.7361 58.316 56.1681 58.456 55.6721 58.736C55.1841 59.008 54.8041 59.4 54.5321 59.912C54.2601 60.424 54.1241 61.02 54.1241 61.7C54.1241 62.38 54.2641 62.98 54.5441 63.5C54.8241 64.012 55.2081 64.408 55.6961 64.688C56.1921 64.968 56.7521 65.108 57.3761 65.108C58.1601 65.108 58.8161 64.912 59.3441 64.52C59.8721 64.12 60.2241 63.604 60.4001 62.972H59.2241C59.0961 63.34 58.8721 63.636 58.5521 63.86C58.2401 64.076 57.8481 64.184 57.3761 64.184C56.8001 64.184 56.3081 64.004 55.9001 63.644C55.5001 63.276 55.2801 62.768 55.2401 62.12H60.4961ZM59.1281 60.164C59.3121 60.46 59.4041 60.816 59.4041 61.232H55.2521C55.3081 60.608 55.5281 60.12 55.9121 59.768C56.3041 59.416 56.7761 59.24 57.3281 59.24C57.7121 59.24 58.0601 59.32 58.3721 59.48C58.6921 59.632 58.9441 59.86 59.1281 60.164ZM82.0208 63.896L83.1128 65H84.5408L82.6568 63.116C82.8408 62.852 83.0008 62.6 83.1368 62.36L84.1208 60.656H82.9448L82.1288 62.024L81.9128 62.36L79.4168 59.852C79.1048 59.524 78.8808 59.248 78.7448 59.024C78.6168 58.8 78.5527 58.568 78.5527 58.328C78.5527 58.048 78.6488 57.82 78.8408 57.644C79.0408 57.46 79.3008 57.368 79.6208 57.368C79.9248 57.368 80.1728 57.464 80.3648 57.656C80.5568 57.84 80.6488 58.096 80.6408 58.424H81.7327C81.7488 58.056 81.6768 57.724 81.5168 57.428C81.3568 57.124 81.1168 56.888 80.7968 56.72C80.4768 56.552 80.1008 56.468 79.6688 56.468C79.2288 56.468 78.8408 56.548 78.5048 56.708C78.1688 56.868 77.9088 57.092 77.7248 57.38C77.5488 57.66 77.4608 57.976 77.4608 58.328C77.4608 58.632 77.5168 58.912 77.6288 59.168C77.7408 59.424 77.9248 59.704 78.1808 60.008C77.5328 60.264 77.0408 60.616 76.7048 61.064C76.3768 61.504 76.2128 62.016 76.2128 62.6C76.2128 63.112 76.3328 63.56 76.5728 63.944C76.8208 64.328 77.1648 64.624 77.6048 64.832C78.0527 65.04 78.5648 65.144 79.1408 65.144C79.7248 65.144 80.2488 65.044 80.7128 64.844C81.1768 64.636 81.6128 64.32 82.0208 63.896ZM80.3048 63.956C79.9608 64.124 79.5728 64.208 79.1408 64.208C78.5968 64.208 78.1528 64.052 77.8088 63.74C77.4728 63.428 77.3048 63.036 77.3048 62.564C77.3048 61.716 77.8167 61.096 78.8408 60.704L81.3008 63.176C80.9888 63.528 80.6568 63.788 80.3048 63.956ZM104.303 64.112H101.375V56.636H100.283V65H104.303V64.112ZM112.411 64.688C112.915 64.968 113.475 65.108 114.091 65.108C114.715 65.108 115.283 64.968 115.795 64.688C116.307 64.408 116.711 64.012 117.007 63.5C117.311 62.98 117.463 62.38 117.463 61.7C117.463 61.02 117.315 60.424 117.019 59.912C116.731 59.4 116.335 59.008 115.831 58.736C115.327 58.456 114.763 58.316 114.139 58.316C113.515 58.316 112.951 58.456 112.447 58.736C111.943 59.008 111.543 59.404 111.247 59.924C110.959 60.436 110.815 61.028 110.815 61.7C110.815 62.38 110.955 62.98 111.235 63.5C111.523 64.012 111.915 64.408 112.411 64.688ZM115.195 63.872C114.851 64.056 114.483 64.148 114.091 64.148C113.699 64.148 113.339 64.06 113.011 63.884C112.683 63.7 112.419 63.424 112.219 63.056C112.027 62.688 111.931 62.236 111.931 61.7C111.931 61.172 112.031 60.724 112.231 60.356C112.431 59.988 112.695 59.716 113.023 59.54C113.359 59.356 113.727 59.264 114.127 59.264C114.519 59.264 114.883 59.356 115.219 59.54C115.555 59.716 115.827 59.988 116.035 60.356C116.243 60.724 116.347 61.172 116.347 61.7C116.347 62.228 116.239 62.676 116.023 63.044C115.815 63.412 115.539 63.688 115.195 63.872ZM130.491 65V58.424H129.399V62.036C129.399 62.724 129.231 63.248 128.895 63.608C128.559 63.968 128.099 64.148 127.515 64.148C126.947 64.148 126.499 63.976 126.171 63.632C125.843 63.28 125.679 62.78 125.679 62.132V58.424H124.599V62.276C124.599 62.884 124.715 63.4 124.947 63.824C125.187 64.248 125.511 64.568 125.919 64.784C126.327 64.992 126.787 65.096 127.299 65.096C127.747 65.096 128.155 65.004 128.523 64.82C128.899 64.628 129.191 64.364 129.399 64.028V65H130.491ZM143.242 59.036C142.746 58.548 142.098 58.304 141.298 58.304C140.85 58.304 140.438 58.396 140.062 58.58C139.694 58.764 139.402 59.024 139.186 59.36V58.424H138.094V65H139.186V61.364C139.186 60.676 139.354 60.152 139.69 59.792C140.034 59.432 140.494 59.252 141.07 59.252C141.638 59.252 142.086 59.428 142.414 59.78C142.742 60.124 142.906 60.624 142.906 61.28V65H143.986V61.124C143.986 60.212 143.738 59.516 143.242 59.036ZM155.73 58.688C155.306 58.44 154.81 58.316 154.242 58.316C153.658 58.316 153.126 58.456 152.646 58.736C152.174 59.016 151.802 59.412 151.53 59.924C151.258 60.428 151.122 61.016 151.122 61.688C151.122 62.352 151.258 62.944 151.53 63.464C151.802 63.984 152.174 64.388 152.646 64.676C153.126 64.964 153.658 65.108 154.242 65.108C154.81 65.108 155.306 64.98 155.73 64.724C156.154 64.468 156.474 64.148 156.69 63.764V65.144C156.69 65.824 156.498 66.352 156.114 66.728C155.738 67.104 155.25 67.292 154.65 67.292C154.122 67.292 153.67 67.168 153.294 66.92C152.918 66.68 152.67 66.36 152.55 65.96H151.47C151.574 66.664 151.914 67.22 152.49 67.628C153.066 68.036 153.786 68.24 154.65 68.24C155.282 68.24 155.834 68.108 156.306 67.844C156.786 67.58 157.154 67.212 157.41 66.74C157.666 66.276 157.794 65.744 157.794 65.144V58.424H156.69V59.624C156.482 59.248 156.162 58.936 155.73 58.688ZM156.39 60.404C156.59 60.772 156.69 61.204 156.69 61.7C156.69 62.196 156.59 62.632 156.39 63.008C156.19 63.376 155.918 63.66 155.574 63.86C155.238 64.052 154.866 64.148 154.458 64.148C154.05 64.148 153.678 64.052 153.342 63.86C153.006 63.66 152.738 63.376 152.538 63.008C152.338 62.632 152.238 62.192 152.238 61.688C152.238 61.192 152.338 60.76 152.538 60.392C152.738 60.024 153.006 59.744 153.342 59.552C153.678 59.36 154.05 59.264 154.458 59.264C154.866 59.264 155.238 59.364 155.574 59.564C155.918 59.756 156.19 60.036 156.39 60.404ZM171.363 62.12C171.387 61.888 171.399 61.668 171.399 61.46C171.399 60.86 171.267 60.324 171.003 59.852C170.747 59.372 170.379 58.996 169.899 58.724C169.419 58.452 168.867 58.316 168.243 58.316C167.603 58.316 167.035 58.456 166.539 58.736C166.051 59.008 165.671 59.4 165.399 59.912C165.127 60.424 164.991 61.02 164.991 61.7C164.991 62.38 165.131 62.98 165.411 63.5C165.691 64.012 166.075 64.408 166.563 64.688C167.059 64.968 167.619 65.108 168.243 65.108C169.027 65.108 169.683 64.912 170.211 64.52C170.739 64.12 171.091 63.604 171.267 62.972H170.091C169.963 63.34 169.739 63.636 169.419 63.86C169.107 64.076 168.715 64.184 168.243 64.184C167.667 64.184 167.175 64.004 166.767 63.644C166.367 63.276 166.147 62.768 166.107 62.12H171.363ZM169.995 60.164C170.179 60.46 170.271 60.816 170.271 61.232H166.119C166.175 60.608 166.395 60.12 166.779 59.768C167.171 59.416 167.643 59.24 168.195 59.24C168.579 59.24 168.927 59.32 169.239 59.48C169.559 59.632 169.811 59.86 169.995 60.164Z" fill="black"/>
</svg>
