<svg width="25" height="25" viewBox="0 0 25 25" fill="none" xmlns="http://www.w3.org/2000/svg">
<path fill-rule="evenodd" clip-rule="evenodd" d="M16.5 3.63135H8.5C5.73858 3.63135 3.5 5.86993 3.5 8.63135V16.6313C3.5 19.3927 5.73858 21.6313 8.5 21.6313H16.5C19.2614 21.6313 21.5 19.3927 21.5 16.6313V8.63135C21.5 5.86993 19.2614 3.63135 16.5 3.63135ZM19.75 16.6313C19.7445 18.4239 18.2926 19.8758 16.5 19.8813H8.5C6.70735 19.8758 5.25549 18.4239 5.25 16.6313V8.63135C5.25549 6.8387 6.70735 5.38684 8.5 5.38135H16.5C18.2926 5.38684 19.7445 6.8387 19.75 8.63135V16.6313ZM17.25 8.88135C17.8023 8.88135 18.25 8.43363 18.25 7.88135C18.25 7.32907 17.8023 6.88135 17.25 6.88135C16.6977 6.88135 16.25 7.32907 16.25 7.88135C16.25 8.43363 16.6977 8.88135 17.25 8.88135ZM12.5 8.13135C10.0147 8.13135 8 10.1461 8 12.6313C8 15.1166 10.0147 17.1313 12.5 17.1313C14.9853 17.1313 17 15.1166 17 12.6313C17.0027 11.437 16.5294 10.2909 15.6849 9.44643C14.8404 8.60194 13.6943 8.12869 12.5 8.13135ZM9.75 12.6313C9.75 14.1501 10.9812 15.3813 12.5 15.3813C14.0188 15.3813 15.25 14.1501 15.25 12.6313C15.25 11.1125 14.0188 9.88135 12.5 9.88135C10.9812 9.88135 9.75 11.1125 9.75 12.6313Z" fill="black"/>
</svg>
