<svg width="25" height="25" viewBox="0 0 25 25" fill="none" xmlns="http://www.w3.org/2000/svg">
<mask id="mask0_5_82" style="mask-type:alpha" maskUnits="userSpaceOnUse" x="0" y="0" width="25" height="25">
<rect x="0.5" y="0.388672" width="24" height="24" fill="#D9D9D9"/>
</mask>
<g mask="url(#mask0_5_82)">
<path d="M8.5 22.3887V20.6387C6.75 19.9387 5.3125 18.8553 4.1875 17.3887C3.0625 15.922 2.5 14.2553 2.5 12.3887C2.5 11.0053 2.7625 9.70534 3.2875 8.48867C3.8125 7.27201 4.525 6.21367 5.425 5.31367C6.325 4.41367 7.38333 3.70117 8.6 3.17617C9.81667 2.65117 11.1167 2.38867 12.5 2.38867C13.8833 2.38867 15.1833 2.65117 16.4 3.17617C17.6167 3.70117 18.675 4.41367 19.575 5.31367C20.475 6.21367 21.1875 7.27201 21.7125 8.48867C22.2375 9.70534 22.5 11.0053 22.5 12.3887C22.5 14.2553 21.9375 15.922 20.8125 17.3887C19.6875 18.8553 18.25 19.9387 16.5 20.6387V22.3887H8.5ZM10.5 12.3887H14.5V4.63867C14.1667 4.55534 13.8333 4.49284 13.5 4.45117C13.1667 4.40951 12.8333 4.38867 12.5 4.38867C12.1667 4.38867 11.8333 4.40951 11.5 4.45117C11.1667 4.49284 10.8333 4.55534 10.5 4.63867V12.3887ZM4.5 12.3887H8.5V5.46367C7.25 6.18034 6.27083 7.15534 5.5625 8.38867C4.85417 9.62201 4.5 10.9553 4.5 12.3887ZM16.5 12.3887H20.5C20.5 10.9553 20.1458 9.62201 19.4375 8.38867C18.7292 7.15534 17.75 6.18034 16.5 5.46367V12.3887ZM10.5 20.3887H14.5V19.2887C15.7 18.8053 16.8083 18.1678 17.825 17.3762C18.8417 16.5845 19.6 15.5887 20.1 14.3887H4.9C5.4 15.5887 6.15833 16.5845 7.175 17.3762C8.19167 18.1678 9.3 18.8053 10.5 19.2887V20.3887Z" fill="#1C1B1F"/>
</g>
</svg>
