<svg width="233" height="39" viewBox="0 0 233 39" fill="none" xmlns="http://www.w3.org/2000/svg">
<path d="M169.295 0.0020752C168.514 0.00207237 167.735 0.421396 167.38 1.26422L163.19 11.2162C162.891 11.9268 162.213 12.4128 161.436 12.4743L150.565 13.3332C148.723 13.4791 147.976 15.7505 149.379 16.9382L157.662 23.9465C158.254 24.4472 158.512 25.2345 158.331 25.9829L155.803 36.4631C155.374 38.2389 157.327 39.6446 158.904 38.693L168.215 33.0759C168.879 32.6745 169.715 32.6745 170.38 33.0759L179.687 38.693C181.264 39.6446 183.221 38.2389 182.792 36.4631L180.259 25.9829C180.079 25.2345 180.337 24.4472 180.929 23.9465L189.211 16.9382C190.615 15.7505 189.868 13.4791 188.026 13.3332L177.155 12.4743C176.378 12.4128 175.704 11.9268 175.404 11.2162L171.215 1.26422C170.86 0.421387 170.077 0.00207804 169.295 0.0020752Z" fill="black"/>
<path d="M119.746 0.0020752C118.964 0.00207237 118.185 0.421396 117.83 1.26422L113.64 11.2162C113.341 11.9268 112.663 12.4128 111.886 12.4743L101.015 13.3332C99.1728 13.4791 98.4262 15.7505 99.8295 16.9382L108.112 23.9465C108.704 24.4472 108.962 25.2345 108.781 25.9829L106.253 36.4631C105.824 38.2389 107.777 39.6446 109.354 38.693L118.665 33.0759C119.33 32.6745 120.165 32.6745 120.83 33.0759L130.137 38.693C131.714 39.6446 133.671 38.2389 133.242 36.4631L130.71 25.9829C130.529 25.2345 130.787 24.4472 131.379 23.9465L139.662 16.9382C141.065 15.7505 140.318 13.4791 138.476 13.3332L127.605 12.4743C126.828 12.4128 126.154 11.9268 125.855 11.2162L121.665 1.26422C121.31 0.421387 120.527 0.00207804 119.746 0.0020752Z" fill="black"/>
<path d="M70.1953 0.0020752C69.4136 0.00207237 68.6348 0.421396 68.2799 1.26422L64.0902 11.2162C63.7911 11.9268 63.1126 12.4128 62.3361 12.4743L51.4648 13.3332C49.6227 13.4791 48.8757 15.7505 50.2792 16.9382L58.5618 23.9465C59.1535 24.4472 59.4118 25.2345 59.2312 25.9829L56.7028 36.4631C56.274 38.2389 58.2268 39.6446 59.8038 38.693L69.1146 33.0759C69.7794 32.6745 70.615 32.6745 71.28 33.0759L80.5868 38.693C82.1639 39.6446 84.1204 38.2389 83.6917 36.4631L81.1594 25.9829C80.9785 25.2345 81.2373 24.4472 81.8288 23.9465L90.1113 16.9382C91.5148 15.7505 90.7678 13.4791 88.9258 13.3332L78.0544 12.4743C77.278 12.4128 76.6037 11.9268 76.3044 11.2162L72.1147 1.26422C71.7598 0.421387 70.977 0.00207804 70.1953 0.0020752Z" fill="black"/>
<path d="M20.645 0.00183105C19.8633 0.00182823 19.0844 0.421152 18.7296 1.26397L14.5399 11.216C14.2407 11.9266 13.5624 12.4126 12.7858 12.4741L1.91446 13.333C0.0723886 13.4789 -0.674533 15.7502 0.728933 16.9379L9.0115 23.9463C9.60313 24.4469 9.86165 25.2342 9.68088 25.9826L7.15256 36.4629C6.7238 38.2386 8.67638 39.6443 10.2535 38.6928L19.5643 33.0756C20.2292 32.6743 21.0649 32.6743 21.7297 33.0756L31.0365 38.6928C32.6136 39.6443 34.5703 38.2386 34.1415 36.4629L31.6091 25.9826C31.4282 25.2342 31.6868 24.4469 32.2785 23.9463L40.5611 16.9379C41.9646 15.7502 41.2176 13.4789 39.3755 13.333L28.5042 12.4741C27.7277 12.4126 27.0535 11.9266 26.7541 11.216L22.5644 1.26397C22.2096 0.421143 21.4267 0.0018339 20.645 0.00183105Z" fill="black"/>
<path d="M232.431 22.2973V12.926L226.705 12.4743C225.929 12.4128 225.254 11.9269 224.955 11.2162L220.765 1.26424C220.055 -0.421423 217.638 -0.421404 216.93 1.26424L212.741 11.2162C212.441 11.9269 211.763 12.4128 210.987 12.4743L200.115 13.3332C198.273 13.4791 197.526 15.7505 198.93 16.9382L207.212 23.9465C207.805 24.4472 208.063 25.2345 207.882 25.9829L205.353 36.4631C204.925 38.2389 206.877 39.6446 208.454 38.693L217.761 33.0759C218.426 32.6745 219.266 32.6745 219.93 33.0759L229.237 38.693C230.815 39.6446 232.772 38.2389 232.342 36.4631L229.81 25.9829C229.63 25.2345 229.887 24.4472 230.479 23.9465L232.431 22.2973Z" fill="black"/>
</svg>
