<svg width="117" height="20" viewBox="0 0 117 20" fill="none" xmlns="http://www.w3.org/2000/svg">
<g clip-path="url(#clip0_5_650)">
<path d="M9.57088 1.11234C9.91462 0.295885 11.0854 0.295886 11.4291 1.11235L13.4579 5.93123C13.6029 6.27543 13.9306 6.51061 14.3067 6.5404L19.5727 6.95748C20.4649 7.02814 20.8267 8.12813 20.1469 8.7034L16.1348 12.0987C15.8482 12.3412 15.723 12.7218 15.8106 13.0843L17.0363 18.161C17.244 19.0211 16.2969 19.701 15.533 19.2401L11.0245 16.5196C10.7025 16.3252 10.2975 16.3252 9.97548 16.5196L5.46699 19.2401C4.70311 19.701 3.75596 19.0211 3.96363 18.161L5.18942 13.0843C5.27698 12.7218 5.15182 12.3412 4.86526 12.0987L0.853062 8.7034C0.173282 8.12813 0.535068 7.02814 1.42729 6.95748L6.69336 6.5404C7.0695 6.51061 7.39716 6.27543 7.54207 5.93123L9.57088 1.11234Z" fill="black"/>
<path d="M33.5708 1.11234C33.9146 0.295885 35.0853 0.295886 35.4291 1.11235L37.4578 5.93123C37.6028 6.27543 37.9305 6.51061 38.3066 6.5404L43.5726 6.95748C44.4648 7.02814 44.8266 8.12813 44.1468 8.7034L40.1347 12.0987C39.8482 12.3412 39.7229 12.7218 39.8105 13.0843L41.0363 18.161C41.2439 19.0211 40.2968 19.701 39.5329 19.2401L35.0245 16.5196C34.7024 16.3252 34.2974 16.3252 33.9754 16.5196L29.4669 19.2401C28.7031 19.701 27.7559 19.0211 27.9636 18.161L29.1894 13.0843C29.2769 12.7218 29.1518 12.3412 28.8652 12.0987L24.853 8.7034C24.1732 8.12813 24.535 7.02814 25.4272 6.95748L30.6933 6.5404C31.0694 6.51061 31.3971 6.27543 31.542 5.93123L33.5708 1.11234Z" fill="black"/>
<path d="M57.5708 1.11234C57.9145 0.295885 59.0853 0.295886 59.429 1.11235L61.4578 5.93123C61.6028 6.27543 61.9304 6.51061 62.3065 6.5404L67.5725 6.95748C68.4648 7.02814 68.8265 8.12813 68.1468 8.7034L64.1347 12.0987C63.8481 12.3412 63.7229 12.7218 63.8104 13.0843L65.0362 18.161C65.2439 19.0211 64.2968 19.701 63.5329 19.2401L59.0244 16.5196C58.7024 16.3252 58.2974 16.3252 57.9754 16.5196L53.4669 19.2401C52.703 19.701 51.7558 19.0211 51.9635 18.161L53.1893 13.0843C53.2769 12.7218 53.1517 12.3412 52.8651 12.0987L48.8529 8.7034C48.1732 8.12813 48.5349 7.02814 49.4272 6.95748L54.6932 6.5404C55.0694 6.51061 55.397 6.27543 55.5419 5.93123L57.5708 1.11234Z" fill="black"/>
<path d="M81.5708 1.11234C81.9145 0.295885 83.0853 0.295886 83.429 1.11235L85.4578 5.93123C85.6028 6.27543 85.9304 6.51061 86.3065 6.5404L91.5725 6.95748C92.4648 7.02814 92.8265 8.12813 92.1468 8.7034L88.1347 12.0987C87.8481 12.3412 87.7229 12.7218 87.8104 13.0843L89.0362 18.161C89.2439 19.0211 88.2968 19.701 87.5329 19.2401L83.0244 16.5196C82.7024 16.3252 82.2974 16.3252 81.9754 16.5196L77.4669 19.2401C76.703 19.701 75.7558 19.0211 75.9635 18.161L77.1893 13.0843C77.2769 12.7218 77.1517 12.3412 76.8651 12.0987L72.8529 8.7034C72.1732 8.12813 72.5349 7.02814 73.4272 6.95748L78.6932 6.5404C79.0694 6.51061 79.397 6.27543 79.5419 5.93123L81.5708 1.11234Z" fill="black"/>
<path d="M105.571 1.11234C105.914 0.295885 107.085 0.295886 107.429 1.11235L109.458 5.93123C109.603 6.27543 109.93 6.51061 110.306 6.5404L115.572 6.95748C116.465 7.02814 116.826 8.12813 116.147 8.7034L112.135 12.0987C111.848 12.3412 111.723 12.7218 111.81 13.0843L113.036 18.161C113.244 19.0211 112.297 19.701 111.533 19.2401L107.024 16.5196C106.702 16.3252 106.297 16.3252 105.975 16.5196L101.467 19.2401C100.703 19.701 99.7558 19.0211 99.9634 18.161L101.189 13.0843C101.277 12.7218 101.152 12.3412 100.865 12.0987L96.8529 8.7034C96.1731 8.12813 96.5349 7.02814 97.4271 6.95748L102.693 6.5404C103.069 6.51061 103.397 6.27543 103.542 5.93123L105.571 1.11234Z" fill="black"/>
</g>
<defs>
<clipPath id="clip0_5_650">
<rect width="116" height="18.8889" fill="white" transform="translate(0.5 0.5)"/>
</clipPath>
</defs>
</svg>
