<svg width="219" height="39" viewBox="0 0 219 39" fill="none" xmlns="http://www.w3.org/2000/svg">
<path d="M169.303 0C168.521 0 167.742 0.423746 167.387 1.26621L163.197 11.2146C162.898 11.9255 162.22 12.4112 161.443 12.4727L150.571 13.3357C148.729 13.4816 147.982 15.749 149.386 16.9368L157.669 23.9495C158.26 24.4504 158.519 25.2335 158.338 25.9819L155.81 36.4666C155.381 38.2423 157.333 39.6441 158.911 38.6925L168.222 33.0751C168.887 32.674 169.722 32.674 170.387 33.0751L179.695 38.6925C181.272 39.6441 183.228 38.2422 182.8 36.4666L180.267 25.9819C180.086 25.2335 180.345 24.4501 180.937 23.9495L189.219 16.9368C190.623 15.749 189.876 13.4816 188.034 13.3357L177.162 12.4727C176.386 12.4103 175.711 11.9249 175.412 11.2146L171.222 1.26621C170.867 0.423356 170.084 0 169.303 0Z" fill="black"/>
<path d="M119.75 0C118.969 0 118.19 0.423746 117.835 1.26621L113.645 11.2146C113.346 11.9255 112.668 12.4112 111.891 12.4727L101.019 13.3357C99.1767 13.4816 98.4301 15.749 99.8334 16.9368L108.116 23.9495C108.708 24.4504 108.967 25.2335 108.786 25.9819L106.257 36.4666C105.828 38.2423 107.781 39.6441 109.358 38.6925L118.67 33.0751C119.334 32.674 120.17 32.674 120.835 33.0751L130.142 38.6925C131.719 39.6441 133.676 38.2422 133.247 36.4666L130.715 25.9819C130.534 25.2335 130.793 24.4501 131.384 23.9495L139.667 16.9368C141.071 15.749 140.324 13.4816 138.482 13.3357L127.61 12.4727C126.833 12.4103 126.159 11.9249 125.86 11.2146L121.67 1.26621C121.315 0.423356 120.532 0 119.75 0Z" fill="black"/>
<path d="M70.1981 0C69.4164 0 68.6376 0.423746 68.2826 1.26621L64.0928 11.2146C63.7936 11.9255 63.1152 12.4112 62.3386 12.4727L51.4668 13.3357C49.6247 13.4816 48.8777 15.749 50.2812 16.9368L58.5641 23.9495C59.1559 24.4504 59.4142 25.2335 59.2335 25.9819L56.7051 36.4666C56.2763 38.2423 58.2292 39.6441 59.8062 38.6925L69.1174 33.0751C69.7822 32.674 70.6178 32.674 71.2829 33.0751L80.59 38.6925C82.1673 39.6441 84.1238 38.2422 83.6951 36.4666L81.1627 25.9819C80.9818 25.2335 81.2407 24.4501 81.8321 23.9495L90.115 16.9368C91.5185 15.749 90.7715 13.4816 88.9294 13.3357L78.0576 12.4727C77.281 12.4103 76.6068 11.9249 76.3074 11.2146L72.1176 1.26621C71.7627 0.423356 70.9799 0 70.1981 0Z" fill="black"/>
<path d="M20.6459 0C19.8641 0 19.0852 0.423746 18.7304 1.26621L14.5405 11.2146C14.2413 11.9255 13.563 12.4112 12.7864 12.4727L1.91454 13.3357C0.0723856 13.4816 -0.674558 15.749 0.728966 16.9368L9.01186 23.9495C9.60352 24.4504 9.86206 25.2335 9.68126 25.9819L7.15282 36.4666C6.72402 38.2423 8.67671 39.6441 10.2539 38.6925L19.5651 33.0751C20.23 32.674 21.0658 32.674 21.7306 33.0751L31.0378 38.6925C32.615 39.6441 34.5717 38.2422 34.1429 36.4666L31.6104 25.9819C31.4295 25.2335 31.6884 24.4501 32.2798 23.9495L40.5667 16.9368C41.9703 15.749 41.2232 13.4816 39.3812 13.3357L28.5053 12.4727C27.7288 12.4103 27.0545 11.9249 26.7552 11.2146L22.5653 1.26621C22.2105 0.423356 21.4276 0 20.6459 0Z" fill="black"/>
<path d="M218.658 32.8291V0.0563965C217.948 0.126628 217.263 0.49807 216.94 1.26617L212.75 11.2145C212.451 11.9254 211.772 12.4112 210.996 12.4726L200.124 13.3357C198.282 13.4816 197.535 15.749 198.938 16.9368L207.221 23.9494C207.814 24.4504 208.072 25.2334 207.891 25.9819L205.362 36.4665C204.934 38.2423 206.886 39.6441 208.463 38.6924L217.771 33.0751C218.043 32.9104 218.352 32.8588 218.658 32.8291Z" fill="black"/>
</svg>
