<svg width="13" height="13" viewBox="0 0 13 13" fill="none" xmlns="http://www.w3.org/2000/svg">
<path d="M12.8736 5.22697H12.35V5.2H6.5V7.8H10.1735C9.63755 9.31352 8.19747 10.4 6.5 10.4C4.34622 10.4 2.6 8.65377 2.6 6.5C2.6 4.34622 4.34622 2.6 6.5 2.6C7.49417 2.6 8.39865 2.97505 9.08732 3.58767L10.9258 1.74915C9.76495 0.667225 8.2121 0 6.5 0C2.91037 0 0 2.91037 0 6.5C0 10.0896 2.91037 13 6.5 13C10.0896 13 13 10.0896 13 6.5C13 6.06417 12.9551 5.63875 12.8736 5.22697Z" fill="#FFC107"/>
<path d="M0.749512 3.47457L2.88509 5.04075C3.46294 3.6101 4.86239 2.6 6.50006 2.6C7.49424 2.6 8.39871 2.97505 9.08739 3.58767L10.9259 1.74915C9.76501 0.667225 8.21216 0 6.50006 0C4.00341 0 1.83826 1.40952 0.749512 3.47457Z" fill="#FF3D00"/>
<path d="M6.5 13.0001C8.17895 13.0001 9.7045 12.3576 10.8579 11.3127L8.84618 9.61033C8.19358 10.1047 7.38238 10.4001 6.5 10.4001C4.80935 10.4001 3.37383 9.32205 2.83303 7.81763L0.713379 9.45075C1.78913 11.5558 3.97378 13.0001 6.5 13.0001Z" fill="#4CAF50"/>
<path d="M12.8736 5.22693H12.35V5.19995H6.5V7.79995H10.1735C9.91608 8.52698 9.4484 9.1539 8.8452 9.61053C8.84552 9.6102 8.84585 9.6102 8.84617 9.60988L10.8579 11.3122C10.7156 11.4416 13 9.74995 13 6.49995C13 6.06413 12.9551 5.6387 12.8736 5.22693Z" fill="#1976D2"/>
</svg>
